# xmcd
#
# Track frame offsets: 
#        151
#        10944
#        19103
#        30303
#        41860
#        51915
#        63919
#        72732
#        84747
#        96956
#        107630
#        118542
#        128634
#        140189
#        150231
#        159714
#        172229
#        183146
#        196675
#        208177
#        221947
#        233348
#        242301
#        252321
#        261999
#
# Disc length: 3633 seconds
#
# Revision: 2
# Processed by: cddbd v1.5.2PL0 Copyright (c) Steve Scherf et al.
# Submitted via: ExactAudioCopy v0.99pb3
#
DISCID=620e2f19
DTITLE=Various Artist - Oldies Revival Rarities Vol 1
DYEAR=1900
DGENRE=Oldies
TTITLE0=Johnny Burnette - Dreaming
TTITLE1=John D. Loudermilk - Language Of Love
TTITLE2=Lee Hazlewood and Suzie Jane Hokom - The Girls In Paris
TTITLE3=Eydie Gormé -  Blame It On The Bossa Nova
TTITLE4=Alma Cogan - Tennessee Waltz
TTITLE5=Dion - Ruby Baby
TTITLE6=Everly Brothers - Stick Me Baby
TTITLE7=Ray Peterson -  Corinna, Corinna
TTITLE8=Robin Like - Susie Darlin'
TTITLE9=Buddy Knox - Hula Love
TTITLE10=Buddy Knox - Rock Your Little Baby To Sleep
TTITLE11=Guy Mitchell - Rock - A - Billy
TTITLE12=Johnnie Ray - Yes, Tonight Josephine
TTITLE13=Randy Randolph - Percolator
TTITLE14=Ediie Hodges - I'm Gonna Knock On Your Door
TTITLE15=Johnny Tillotson - You Can Never Stop Me Loving You
TTITLE16=Stevens, April - Teach Me Tiger
TTITLE17=Mike Berry - Tribute To Buddy Holly
TTITLE18=Terry Stafford - Suspicion
TTITLE19=Larry Finnegan- Dear One
TTITLE20=Joey Dee - Ya Ya Twist
TTITLE21=Jerry Jaye - My Girl Josephine
TTITLE22=Gene Vincent - Be - Bop - A - Lula '62
TTITLE23=Rock A Teens - Woo Hoo
TTITLE24=Surfaris - Wipe Out
EXTD=
EXTT0=
EXTT1=
EXTT2=
EXTT3=
EXTT4=
EXTT5=
EXTT6=
EXTT7=
EXTT8=
EXTT9=
EXTT10=
EXTT11=
EXTT12=
EXTT13=
EXTT14=
EXTT15=
EXTT16=
EXTT17=
EXTT18=
EXTT19=
EXTT20=
EXTT21=
EXTT22=
EXTT23=
EXTT24=
PLAYORDER=
